<mxfile host="app.diagrams.net" agent="Mozilla/5.0 (Windows NT 10.0; Win64; x64) AppleWebKit/537.36 (KHTML, like Gecko) Chrome/132.0.0.0 Safari/537.36" version="26.0.10" pages="2">
  <diagram name="Top-Level Layer" id="QD8uTQOG1cJqZvTCclKL">
    <mxGraphModel dx="1024" dy="551" grid="1" gridSize="10" guides="1" tooltips="1" connect="1" arrows="1" fold="1" page="1" pageScale="1" pageWidth="850" pageHeight="1100" math="0" shadow="0">
      <root>
        <mxCell id="0" />
        <mxCell id="1" parent="0" />
        <mxCell id="fYdZ9a1gW4qeYEYvzAa3-24" value="" style="edgeStyle=orthogonalEdgeStyle;rounded=0;orthogonalLoop=1;jettySize=auto;html=1;" edge="1" parent="1" source="fYdZ9a1gW4qeYEYvzAa3-3" target="fYdZ9a1gW4qeYEYvzAa3-21">
          <mxGeometry relative="1" as="geometry" />
        </mxCell>
        <mxCell id="fYdZ9a1gW4qeYEYvzAa3-3" value="Bucket" style="rounded=1;whiteSpace=wrap;html=1;fillColor=#d5e8d4;strokeColor=#82b366;" vertex="1" parent="1">
          <mxGeometry x="410" y="370" width="120" height="60" as="geometry" />
        </mxCell>
        <mxCell id="fYdZ9a1gW4qeYEYvzAa3-11" value="Fetches website" style="edgeStyle=orthogonalEdgeStyle;rounded=0;orthogonalLoop=1;jettySize=auto;html=1;entryX=0.5;entryY=0;entryDx=0;entryDy=0;" edge="1" parent="1" source="fYdZ9a1gW4qeYEYvzAa3-4" target="fYdZ9a1gW4qeYEYvzAa3-3">
          <mxGeometry x="-0.3333" relative="1" as="geometry">
            <Array as="points">
              <mxPoint x="470" y="360" />
              <mxPoint x="470" y="360" />
            </Array>
            <mxPoint as="offset" />
          </mxGeometry>
        </mxCell>
        <mxCell id="fYdZ9a1gW4qeYEYvzAa3-4" value="CDN" style="rounded=1;whiteSpace=wrap;html=1;fillColor=#f8cecc;strokeColor=#b85450;" vertex="1" parent="1">
          <mxGeometry x="410" y="280" width="120" height="60" as="geometry" />
        </mxCell>
        <mxCell id="fYdZ9a1gW4qeYEYvzAa3-9" value="" style="edgeStyle=orthogonalEdgeStyle;rounded=0;orthogonalLoop=1;jettySize=auto;html=1;" edge="1" parent="1" source="fYdZ9a1gW4qeYEYvzAa3-6" target="fYdZ9a1gW4qeYEYvzAa3-7">
          <mxGeometry relative="1" as="geometry" />
        </mxCell>
        <mxCell id="fYdZ9a1gW4qeYEYvzAa3-28" value="Route" style="edgeLabel;html=1;align=center;verticalAlign=middle;resizable=0;points=[];" vertex="1" connectable="0" parent="fYdZ9a1gW4qeYEYvzAa3-9">
          <mxGeometry x="-0.1032" y="2" relative="1" as="geometry">
            <mxPoint as="offset" />
          </mxGeometry>
        </mxCell>
        <mxCell id="fYdZ9a1gW4qeYEYvzAa3-6" value="Domain Name" style="rounded=1;whiteSpace=wrap;html=1;fillColor=#dae8fc;strokeColor=#6c8ebf;" vertex="1" parent="1">
          <mxGeometry x="45" y="280" width="120" height="60" as="geometry" />
        </mxCell>
        <mxCell id="fYdZ9a1gW4qeYEYvzAa3-10" value="Fetches&lt;div&gt;from&amp;nbsp;&lt;/div&gt;&lt;div&gt;cache&lt;/div&gt;" style="edgeStyle=orthogonalEdgeStyle;rounded=0;orthogonalLoop=1;jettySize=auto;html=1;" edge="1" parent="1" source="fYdZ9a1gW4qeYEYvzAa3-7" target="fYdZ9a1gW4qeYEYvzAa3-4">
          <mxGeometry relative="1" as="geometry" />
        </mxCell>
        <mxCell id="fYdZ9a1gW4qeYEYvzAa3-7" value="DNS Hosted Zone" style="rounded=1;whiteSpace=wrap;html=1;fillColor=#fff2cc;strokeColor=#d6b656;" vertex="1" parent="1">
          <mxGeometry x="230" y="280" width="120" height="60" as="geometry" />
        </mxCell>
        <mxCell id="fYdZ9a1gW4qeYEYvzAa3-14" value="" style="edgeStyle=orthogonalEdgeStyle;rounded=0;orthogonalLoop=1;jettySize=auto;html=1;" edge="1" parent="1" source="fYdZ9a1gW4qeYEYvzAa3-12" target="fYdZ9a1gW4qeYEYvzAa3-13">
          <mxGeometry relative="1" as="geometry" />
        </mxCell>
        <mxCell id="fYdZ9a1gW4qeYEYvzAa3-27" value="Build&lt;div&gt;Website&lt;/div&gt;" style="edgeLabel;html=1;align=center;verticalAlign=middle;resizable=0;points=[];" vertex="1" connectable="0" parent="fYdZ9a1gW4qeYEYvzAa3-14">
          <mxGeometry x="-0.1782" relative="1" as="geometry">
            <mxPoint as="offset" />
          </mxGeometry>
        </mxCell>
        <mxCell id="fYdZ9a1gW4qeYEYvzAa3-12" value="VCS Repo" style="rounded=1;whiteSpace=wrap;html=1;" vertex="1" parent="1">
          <mxGeometry x="45" y="370" width="120" height="60" as="geometry" />
        </mxCell>
        <mxCell id="fYdZ9a1gW4qeYEYvzAa3-15" value="Hosts&lt;div&gt;Website&lt;/div&gt;" style="edgeStyle=orthogonalEdgeStyle;rounded=0;orthogonalLoop=1;jettySize=auto;html=1;" edge="1" parent="1" source="fYdZ9a1gW4qeYEYvzAa3-13" target="fYdZ9a1gW4qeYEYvzAa3-3">
          <mxGeometry relative="1" as="geometry" />
        </mxCell>
        <mxCell id="fYdZ9a1gW4qeYEYvzAa3-13" value="Build Server" style="rounded=1;whiteSpace=wrap;html=1;" vertex="1" parent="1">
          <mxGeometry x="230" y="370" width="120" height="60" as="geometry" />
        </mxCell>
        <mxCell id="fYdZ9a1gW4qeYEYvzAa3-17" value="" style="edgeStyle=orthogonalEdgeStyle;rounded=0;orthogonalLoop=1;jettySize=auto;html=1;" edge="1" parent="1" source="fYdZ9a1gW4qeYEYvzAa3-16" target="fYdZ9a1gW4qeYEYvzAa3-6">
          <mxGeometry relative="1" as="geometry" />
        </mxCell>
        <mxCell id="fYdZ9a1gW4qeYEYvzAa3-16" value="Internet" style="ellipse;whiteSpace=wrap;html=1;aspect=fixed;fillColor=#e1d5e7;strokeColor=#9673a6;" vertex="1" parent="1">
          <mxGeometry x="70" y="170" width="70" height="70" as="geometry" />
        </mxCell>
        <mxCell id="fYdZ9a1gW4qeYEYvzAa3-19" value="" style="edgeStyle=orthogonalEdgeStyle;rounded=0;orthogonalLoop=1;jettySize=auto;html=1;" edge="1" parent="1" source="fYdZ9a1gW4qeYEYvzAa3-18" target="fYdZ9a1gW4qeYEYvzAa3-12">
          <mxGeometry relative="1" as="geometry" />
        </mxCell>
        <mxCell id="fYdZ9a1gW4qeYEYvzAa3-18" value="Git Push" style="ellipse;whiteSpace=wrap;html=1;aspect=fixed;fillColor=#e1d5e7;strokeColor=#9673a6;" vertex="1" parent="1">
          <mxGeometry x="70" y="470" width="70" height="70" as="geometry" />
        </mxCell>
        <mxCell id="fYdZ9a1gW4qeYEYvzAa3-20" value="Serverless Function" style="rounded=1;whiteSpace=wrap;html=1;" vertex="1" parent="1">
          <mxGeometry x="630" y="450" width="120" height="60" as="geometry" />
        </mxCell>
        <mxCell id="fYdZ9a1gW4qeYEYvzAa3-22" value="" style="edgeStyle=orthogonalEdgeStyle;rounded=0;orthogonalLoop=1;jettySize=auto;html=1;" edge="1" parent="1" source="fYdZ9a1gW4qeYEYvzAa3-21" target="fYdZ9a1gW4qeYEYvzAa3-20">
          <mxGeometry relative="1" as="geometry" />
        </mxCell>
        <mxCell id="fYdZ9a1gW4qeYEYvzAa3-21" value="Website" style="rounded=1;whiteSpace=wrap;html=1;" vertex="1" parent="1">
          <mxGeometry x="410" y="450" width="120" height="60" as="geometry" />
        </mxCell>
        <mxCell id="fYdZ9a1gW4qeYEYvzAa3-23" value="" style="endArrow=classic;html=1;rounded=0;exitX=0;exitY=0.75;exitDx=0;exitDy=0;entryX=1;entryY=0.75;entryDx=0;entryDy=0;" edge="1" parent="1" source="fYdZ9a1gW4qeYEYvzAa3-20" target="fYdZ9a1gW4qeYEYvzAa3-21">
          <mxGeometry width="50" height="50" relative="1" as="geometry">
            <mxPoint x="320" y="560" as="sourcePoint" />
            <mxPoint x="370" y="510" as="targetPoint" />
          </mxGeometry>
        </mxCell>
        <mxCell id="fYdZ9a1gW4qeYEYvzAa3-26" value="Dynamic&amp;nbsp;&lt;div&gt;content&lt;/div&gt;" style="text;html=1;align=center;verticalAlign=middle;resizable=0;points=[];autosize=1;strokeColor=none;fillColor=none;" vertex="1" parent="1">
          <mxGeometry x="540" y="443" width="70" height="40" as="geometry" />
        </mxCell>
      </root>
    </mxGraphModel>
  </diagram>
  <diagram id="PDSYT6y7B7_ibfjy4Gq6" name="Portfolio Website Mockup">
    <mxGraphModel dx="1195" dy="643" grid="1" gridSize="10" guides="1" tooltips="1" connect="1" arrows="1" fold="1" page="1" pageScale="1" pageWidth="850" pageHeight="1100" math="0" shadow="0">
      <root>
        <mxCell id="0" />
        <mxCell id="1" parent="0" />
        <mxCell id="fBgC1NM9sWI6URAGcCbs-12" value="" style="rounded=0;whiteSpace=wrap;html=1;" parent="1" vertex="1">
          <mxGeometry x="150" y="180" width="670" height="430" as="geometry" />
        </mxCell>
        <mxCell id="fBgC1NM9sWI6URAGcCbs-14" value="" style="rounded=0;whiteSpace=wrap;html=1;" parent="1" vertex="1">
          <mxGeometry x="960" y="180" width="670" height="430" as="geometry" />
        </mxCell>
        <mxCell id="fBgC1NM9sWI6URAGcCbs-15" value="" style="rounded=0;whiteSpace=wrap;html=1;" parent="1" vertex="1">
          <mxGeometry x="980" y="220" width="450" height="210" as="geometry" />
        </mxCell>
        <mxCell id="fBgC1NM9sWI6URAGcCbs-22" value="Portfolio Project Page" style="text;html=1;align=center;verticalAlign=middle;resizable=0;points=[];autosize=1;strokeColor=none;fillColor=none;" parent="1" vertex="1">
          <mxGeometry x="1215" y="53" width="140" height="30" as="geometry" />
        </mxCell>
        <mxCell id="fBgC1NM9sWI6URAGcCbs-23" value="Portfolio Overview" style="text;html=1;align=center;verticalAlign=middle;resizable=0;points=[];autosize=1;strokeColor=none;fillColor=none;" parent="1" vertex="1">
          <mxGeometry x="410" y="53" width="120" height="30" as="geometry" />
        </mxCell>
        <mxCell id="fBgC1NM9sWI6URAGcCbs-26" value="" style="rounded=0;whiteSpace=wrap;html=1;" parent="1" vertex="1">
          <mxGeometry x="980" y="440" width="60" height="50" as="geometry" />
        </mxCell>
        <mxCell id="fBgC1NM9sWI6URAGcCbs-34" value="" style="rounded=0;whiteSpace=wrap;html=1;" parent="1" vertex="1">
          <mxGeometry x="1050" y="440" width="60" height="50" as="geometry" />
        </mxCell>
        <mxCell id="fBgC1NM9sWI6URAGcCbs-35" value="" style="rounded=0;whiteSpace=wrap;html=1;" parent="1" vertex="1">
          <mxGeometry x="1130" y="440" width="60" height="50" as="geometry" />
        </mxCell>
        <mxCell id="fBgC1NM9sWI6URAGcCbs-36" value="" style="rounded=0;whiteSpace=wrap;html=1;" parent="1" vertex="1">
          <mxGeometry x="1215" y="440" width="60" height="50" as="geometry" />
        </mxCell>
        <mxCell id="fBgC1NM9sWI6URAGcCbs-37" value="" style="rounded=0;whiteSpace=wrap;html=1;" parent="1" vertex="1">
          <mxGeometry x="1290" y="440" width="60" height="50" as="geometry" />
        </mxCell>
        <mxCell id="fBgC1NM9sWI6URAGcCbs-38" value="" style="rounded=0;whiteSpace=wrap;html=1;" parent="1" vertex="1">
          <mxGeometry x="1370" y="440" width="60" height="50" as="geometry" />
        </mxCell>
        <mxCell id="fBgC1NM9sWI6URAGcCbs-39" value="Launch project" style="rounded=0;whiteSpace=wrap;html=1;" parent="1" vertex="1">
          <mxGeometry x="1450" y="200" width="160" height="40" as="geometry" />
        </mxCell>
        <mxCell id="fBgC1NM9sWI6URAGcCbs-40" value="View Source Code" style="rounded=0;whiteSpace=wrap;html=1;" parent="1" vertex="1">
          <mxGeometry x="1450" y="250" width="160" height="40" as="geometry" />
        </mxCell>
        <mxCell id="fBgC1NM9sWI6URAGcCbs-41" value="Download Project Summary" style="rounded=0;whiteSpace=wrap;html=1;" parent="1" vertex="1">
          <mxGeometry x="1450" y="300" width="160" height="40" as="geometry" />
        </mxCell>
        <mxCell id="fBgC1NM9sWI6URAGcCbs-43" value="&lt;b&gt;&lt;font style=&quot;font-size: 17px;&quot;&gt;Project Name&lt;/font&gt;&lt;/b&gt;" style="text;html=1;align=center;verticalAlign=middle;resizable=0;points=[];autosize=1;strokeColor=none;fillColor=none;" parent="1" vertex="1">
          <mxGeometry x="1000" y="190" width="130" height="30" as="geometry" />
        </mxCell>
        <mxCell id="fBgC1NM9sWI6URAGcCbs-44" value="Project Desciption&lt;span style=&quot;color: rgba(0, 0, 0, 0); font-family: monospace; font-size: 0px; text-align: start;&quot;&gt;%3CmxGraphModel%3E%3Croot%3E%3CmxCell%20id%3D%220%22%2F%3E%3CmxCell%20id%3D%221%22%20parent%3D%220%22%2F%3E%3CmxCell%20id%3D%222%22%20value%3D%22View%20Source%20Code%22%20style%3D%22rounded%3D0%3BwhiteSpace%3Dwrap%3Bhtml%3D1%3B%22%20vertex%3D%221%22%20parent%3D%221%22%3E%3CmxGeometry%20x%3D%221450%22%20y%3D%22280%22%20width%3D%22160%22%20height%3D%2240%22%20as%3D%22geometry%22%2F%3E%3C%2FmxCell%3E%3C%2Froot%3E%3C%2FmxGraphModel%3E&lt;/span&gt;" style="text;html=1;align=center;verticalAlign=middle;resizable=0;points=[];autosize=1;strokeColor=none;fillColor=none;" parent="1" vertex="1">
          <mxGeometry x="950" y="490" width="120" height="30" as="geometry" />
        </mxCell>
        <mxCell id="fBgC1NM9sWI6URAGcCbs-49" value="Project Journal" style="text;html=1;align=center;verticalAlign=middle;resizable=0;points=[];autosize=1;strokeColor=none;fillColor=none;" parent="1" vertex="1">
          <mxGeometry x="960" y="535" width="100" height="30" as="geometry" />
        </mxCell>
        <mxCell id="fBgC1NM9sWI6URAGcCbs-50" value="Obstacles Overcame" style="text;html=1;align=center;verticalAlign=middle;resizable=0;points=[];autosize=1;strokeColor=none;fillColor=none;" parent="1" vertex="1">
          <mxGeometry x="950" y="560" width="140" height="30" as="geometry" />
        </mxCell>
        <mxCell id="fBgC1NM9sWI6URAGcCbs-51" value="Technology stack" style="text;html=1;align=center;verticalAlign=middle;resizable=0;points=[];autosize=1;strokeColor=none;fillColor=none;" parent="1" vertex="1">
          <mxGeometry x="950" y="510" width="120" height="30" as="geometry" />
        </mxCell>
        <mxCell id="gUdcMPE6dBjqbnAeJAc7-5" value="" style="rounded=0;whiteSpace=wrap;html=1;" vertex="1" parent="1">
          <mxGeometry x="180" y="350" width="180" height="120" as="geometry" />
        </mxCell>
        <mxCell id="gUdcMPE6dBjqbnAeJAc7-6" value="" style="rounded=0;whiteSpace=wrap;html=1;" vertex="1" parent="1">
          <mxGeometry x="180" y="480" width="180" height="120" as="geometry" />
        </mxCell>
        <mxCell id="gUdcMPE6dBjqbnAeJAc7-7" value="" style="rounded=0;whiteSpace=wrap;html=1;" vertex="1" parent="1">
          <mxGeometry x="610" y="350" width="180" height="120" as="geometry" />
        </mxCell>
        <mxCell id="gUdcMPE6dBjqbnAeJAc7-8" value="" style="rounded=0;whiteSpace=wrap;html=1;" vertex="1" parent="1">
          <mxGeometry x="395" y="350" width="180" height="120" as="geometry" />
        </mxCell>
        <mxCell id="gUdcMPE6dBjqbnAeJAc7-9" value="" style="rounded=0;whiteSpace=wrap;html=1;" vertex="1" parent="1">
          <mxGeometry x="395" y="480" width="180" height="120" as="geometry" />
        </mxCell>
        <mxCell id="gUdcMPE6dBjqbnAeJAc7-10" value="" style="rounded=0;whiteSpace=wrap;html=1;" vertex="1" parent="1">
          <mxGeometry x="610" y="480" width="180" height="120" as="geometry" />
        </mxCell>
        <mxCell id="gUdcMPE6dBjqbnAeJAc7-11" value="" style="whiteSpace=wrap;html=1;aspect=fixed;" vertex="1" parent="1">
          <mxGeometry x="180" y="200" width="80" height="80" as="geometry" />
        </mxCell>
        <mxCell id="gUdcMPE6dBjqbnAeJAc7-12" value="My Name" style="text;html=1;align=center;verticalAlign=middle;resizable=0;points=[];autosize=1;strokeColor=none;fillColor=none;" vertex="1" parent="1">
          <mxGeometry x="260" y="200" width="70" height="30" as="geometry" />
        </mxCell>
        <mxCell id="gUdcMPE6dBjqbnAeJAc7-13" value="A small bio about me" style="text;html=1;align=center;verticalAlign=middle;resizable=0;points=[];autosize=1;strokeColor=none;fillColor=none;" vertex="1" parent="1">
          <mxGeometry x="260" y="230" width="130" height="30" as="geometry" />
        </mxCell>
        <mxCell id="gUdcMPE6dBjqbnAeJAc7-14" value="Download Resume (PDF)" style="rounded=0;whiteSpace=wrap;html=1;" vertex="1" parent="1">
          <mxGeometry x="640" y="200" width="140" height="30" as="geometry" />
        </mxCell>
        <mxCell id="gUdcMPE6dBjqbnAeJAc7-15" value="View Linked In" style="rounded=0;whiteSpace=wrap;html=1;" vertex="1" parent="1">
          <mxGeometry x="640" y="240" width="140" height="30" as="geometry" />
        </mxCell>
        <mxCell id="gUdcMPE6dBjqbnAeJAc7-16" value="View GitHub" style="rounded=0;whiteSpace=wrap;html=1;" vertex="1" parent="1">
          <mxGeometry x="640" y="280" width="140" height="30" as="geometry" />
        </mxCell>
        <mxCell id="gUdcMPE6dBjqbnAeJAc7-18" value="" style="triangle;whiteSpace=wrap;html=1;" vertex="1" parent="1">
          <mxGeometry x="210" y="220" width="30" height="40" as="geometry" />
        </mxCell>
        <mxCell id="gUdcMPE6dBjqbnAeJAc7-19" value="Projects" style="text;html=1;align=center;verticalAlign=middle;resizable=0;points=[];autosize=1;strokeColor=none;fillColor=none;" vertex="1" parent="1">
          <mxGeometry x="170" y="305" width="70" height="30" as="geometry" />
        </mxCell>
        <mxCell id="gUdcMPE6dBjqbnAeJAc7-20" value="" style="endArrow=none;html=1;rounded=0;exitX=0.001;exitY=0.348;exitDx=0;exitDy=0;exitPerimeter=0;" edge="1" parent="1" source="fBgC1NM9sWI6URAGcCbs-12">
          <mxGeometry width="50" height="50" relative="1" as="geometry">
            <mxPoint x="280" y="360" as="sourcePoint" />
            <mxPoint x="820" y="330" as="targetPoint" />
          </mxGeometry>
        </mxCell>
      </root>
    </mxGraphModel>
  </diagram>
</mxfile>
